<?xml version="1.0" encoding="UTF-8" standalone="no"?>
<!-- Created with Inkscape (http://www.inkscape.org/) -->

<svg
   width="800"
   height="800"
   viewBox="0 0 799.99999 799.99996"
   id="svg2"
   version="1.1"
   inkscape:version="1.2 (dc2aeda, 2022-05-15)"
   sodipodi:docname="s500-logo.svg"
   inkscape:export-filename="D:\Pictures\Inkscape\s500 Logo\s500-logo.png"
   inkscape:export-xdpi="225"
   inkscape:export-ydpi="225"
   xmlns:inkscape="http://www.inkscape.org/namespaces/inkscape"
   xmlns:sodipodi="http://sodipodi.sourceforge.net/DTD/sodipodi-0.dtd"
   xmlns="http://www.w3.org/2000/svg"
   xmlns:svg="http://www.w3.org/2000/svg"
   xmlns:rdf="http://www.w3.org/1999/02/22-rdf-syntax-ns#"
   xmlns:cc="http://creativecommons.org/ns#"
   xmlns:dc="http://purl.org/dc/elements/1.1/">
  <title
     id="title4228">S500 Logo</title>
  <defs
     id="defs4">
    <inkscape:perspective
       sodipodi:type="inkscape:persp3d"
       inkscape:vp_x="55.641189 : 547.73224 : 1"
       inkscape:vp_y="0 : 806.43788 : 0"
       inkscape:vp_z="744.09447 : 531.50356 : 1"
       inkscape:persp3d-origin="372.04723 : 390.05945 : 1"
       id="perspective3336" />
  </defs>
  <sodipodi:namedview
     id="base"
     pagecolor="#ffffff"
     bordercolor="#666666"
     borderopacity="1.0"
     inkscape:pageopacity="0.0"
     inkscape:pageshadow="2"
     inkscape:zoom="0.61"
     inkscape:cx="213.93443"
     inkscape:cy="422.95082"
     inkscape:document-units="px"
     inkscape:current-layer="layer1"
     showgrid="false"
     inkscape:window-width="1234"
     inkscape:window-height="774"
     inkscape:window-x="64"
     inkscape:window-y="56"
     inkscape:window-maximized="0"
     units="px"
     showguides="true"
     inkscape:guide-bbox="true"
     inkscape:showpageshadow="2"
     inkscape:pagecheckerboard="0"
     inkscape:deskcolor="#d1d1d1">
    <sodipodi:guide
       position="400,903.27864"
       orientation="1,0"
       id="guide4230"
       inkscape:locked="false" />
    <sodipodi:guide
       position="29.508196,339.34425"
       orientation="1,0"
       id="guide4246"
       inkscape:locked="false" />
    <sodipodi:guide
       position="770.49179,309.83605"
       orientation="1,0"
       id="guide4248"
       inkscape:locked="false" />
    <sodipodi:guide
       position="29.508196,770.49176"
       orientation="0,1"
       id="guide4250"
       inkscape:locked="false" />
    <sodipodi:guide
       position="29.508196,683.60652"
       orientation="1,0"
       id="guide4273"
       inkscape:locked="false" />
  </sodipodi:namedview>
  <metadata
     id="metadata7">
    <rdf:RDF>
      <cc:Work
         rdf:about="">
        <dc:format>image/svg+xml</dc:format>
        <dc:type
           rdf:resource="http://purl.org/dc/dcmitype/StillImage" />
        <dc:title>S500 Logo</dc:title>
        <cc:license
           rdf:resource="http://creativecommons.org/licenses/by/4.0/" />
        <dc:creator>
          <cc:Agent>
            <dc:title>Superspeed500</dc:title>
          </cc:Agent>
        </dc:creator>
        <dc:rights>
          <cc:Agent>
            <dc:title>Superspeed500</dc:title>
          </cc:Agent>
        </dc:rights>
        <dc:description>The Superspeed500 logo</dc:description>
      </cc:Work>
      <cc:License
         rdf:about="http://creativecommons.org/licenses/by/4.0/">
        <cc:permits
           rdf:resource="http://creativecommons.org/ns#Reproduction" />
        <cc:permits
           rdf:resource="http://creativecommons.org/ns#Distribution" />
        <cc:requires
           rdf:resource="http://creativecommons.org/ns#Notice" />
        <cc:requires
           rdf:resource="http://creativecommons.org/ns#Attribution" />
        <cc:permits
           rdf:resource="http://creativecommons.org/ns#DerivativeWorks" />
      </cc:License>
    </rdf:RDF>
  </metadata>
  <g
     inkscape:groupmode="layer"
     id="layer2"
     inkscape:label="Bakgrunn"
     style="display:none;opacity:1"
     sodipodi:insensitive="true">
    <rect
       style="fill:#00629b;fill-opacity:1;stroke:#00629b;stroke-width:3.80227137;stroke-linejoin:miter;stroke-miterlimit:4;stroke-dasharray:none;stroke-dashoffset:0;stroke-opacity:1"
       id="rect4271"
       width="796.19775"
       height="796.19775"
       x="1.9011357"
       y="1.9011062" />
  </g>
  <g
     inkscape:label="Logo"
     inkscape:groupmode="layer"
     id="layer1"
     transform="translate(0,-252.36227)"
     style="display:inline">
    <g
       id="g4234"
       transform="translate(0,-2)">
      <path
         sodipodi:nodetypes="ccscsc"
         inkscape:connector-curvature="0"
         id="path4226"
         d="M 401.18033,811.77203 V 693.73925 c 0,0 -45.18902,-49.00758 -113.11475,-55.73771 C 209.33641,630.201 97.901639,594.55893 97.901639,594.55893 c 0,0 117.430131,92.71037 177.049181,108.19672 83.52156,21.69515 126.22951,109.01638 126.22951,109.01638 z"
         style="fill:#be7635;fill-opacity:1;fill-rule:evenodd;stroke:none;stroke-width:1px;stroke-linecap:butt;stroke-linejoin:miter;stroke-opacity:1" />
      <path
         style="fill:#be7635;fill-opacity:1;fill-rule:evenodd;stroke:none;stroke-width:1px;stroke-linecap:butt;stroke-linejoin:miter;stroke-opacity:1"
         d="M 399.90164,811.77203 V 693.73925 c 0,0 45.18902,-49.00758 113.11475,-55.73771 78.72917,-7.80054 190.16394,-43.44261 190.16394,-43.44261 0,0 -117.43013,92.71037 -177.04918,108.19672 -83.52156,21.69515 -126.22951,109.01638 -126.22951,109.01638 z"
         id="path4232"
         inkscape:connector-curvature="0"
         sodipodi:nodetypes="ccscsc" />
    </g>
    <g
       id="g4238"
       transform="translate(0,-126)">
      <path
         style="fill:#be7635;fill-opacity:1;fill-rule:evenodd;stroke:none;stroke-width:1px;stroke-linecap:butt;stroke-linejoin:miter;stroke-opacity:1"
         d="M 401.18033,811.77203 V 693.73925 c 0,0 -45.18902,-49.00758 -113.11475,-55.73771 C 209.33641,630.201 97.901639,594.55893 97.901639,594.55893 c 0,0 117.430131,92.71037 177.049181,108.19672 83.52156,21.69515 126.22951,109.01638 126.22951,109.01638 z"
         id="path4240"
         inkscape:connector-curvature="0"
         sodipodi:nodetypes="ccscsc" />
      <path
         sodipodi:nodetypes="ccscsc"
         inkscape:connector-curvature="0"
         id="path4242"
         d="M 399.90164,811.77203 V 693.73925 c 0,0 45.18902,-49.00758 113.11475,-55.73771 78.72917,-7.80054 190.16394,-43.44261 190.16394,-43.44261 0,0 -117.43013,92.71037 -177.04918,108.19672 -83.52156,21.69515 -126.22951,109.01638 -126.22951,109.01638 z"
         style="fill:#be7635;fill-opacity:1;fill-rule:evenodd;stroke:none;stroke-width:1px;stroke-linecap:butt;stroke-linejoin:miter;stroke-opacity:1" />
    </g>
    <g
       aria-label="Superspeed"
       transform="matrix(3.1935811,0,0,4.5237898,-70.158842,98.556647)"
       id="flowRoot4252"
       style="line-height:0.01%;letter-spacing:0px;word-spacing:0px;display:inline;fill:#ffffff;stroke:#000000;stroke-width:1.21546">
      <path
         d="m 54.546875,57.700244 q 0,1.699219 -0.800781,3.359375 -0.78125,1.660156 -2.207032,2.8125 -1.5625,1.25 -3.652343,1.953125 -2.070313,0.703125 -5,0.703125 -3.144532,0 -5.664063,-0.585938 -2.5,-0.585937 -5.097656,-1.738281 V 59.3604 h 0.273437 q 2.207032,1.835938 5.097657,2.832031 2.890625,0.996094 5.429687,0.996094 3.59375,0 5.585938,-1.347656 2.011718,-1.347656 2.011718,-3.59375 0,-1.933594 -0.957031,-2.851563 -0.9375,-0.917968 -2.871094,-1.425781 Q 45.230469,53.57915 43.511719,53.325244 41.8125,53.071338 39.898437,52.680713 36.03125,51.8604 34.15625,49.887744 q -1.855469,-1.992188 -1.855469,-5.175781 0,-3.652344 3.085938,-5.976563 3.085937,-2.34375 7.832031,-2.34375 3.066406,0 5.625,0.585938 2.558594,0.585937 4.53125,1.445312 v 4.570313 h -0.273438 q -1.660156,-1.40625 -4.375,-2.324219 -2.695312,-0.9375 -5.527343,-0.9375 -3.105469,0 -5,1.289062 -1.875,1.289063 -1.875,3.320313 0,1.816406 0.9375,2.851562 0.9375,1.035157 3.300781,1.582032 1.25,0.273437 3.554687,0.664062 2.304688,0.390625 3.90625,0.800781 3.242188,0.859375 4.882813,2.597657 1.640625,1.738281 1.640625,4.863281 z"
         style="font-size:40px;line-height:1.25"
         id="path340" />
      <path
         d="M 78.550781,66.001025 H 74.878906 V 63.57915 q -1.855469,1.464844 -3.554687,2.246094 -1.699219,0.78125 -3.75,0.78125 -3.4375,0 -5.351563,-2.089844 -1.914062,-2.109375 -1.914062,-6.171875 V 44.184619 h 3.671875 v 12.421875 q 0,1.660156 0.15625,2.851562 0.15625,1.171875 0.664062,2.011719 0.527344,0.859375 1.367188,1.25 0.839843,0.390625 2.441406,0.390625 1.425781,0 3.105469,-0.742187 1.699218,-0.742188 3.164062,-1.894532 V 44.184619 h 3.671875 z"
         style="font-size:40px;line-height:1.25"
         id="path342" />
      <path
         d="m 104.97656,54.82915 q 0,2.65625 -0.76172,4.863281 -0.76171,2.1875 -2.14843,3.710938 -1.28907,1.445312 -3.046879,2.246094 -1.738281,0.78125 -3.691406,0.78125 -1.699219,0 -3.085938,-0.371094 Q 90.875,65.688525 89.449219,64.907275 V 74.0479 H 85.777344 V 44.184619 h 3.671875 v 2.285156 q 1.464843,-1.230469 3.28125,-2.050781 1.835937,-0.839844 3.90625,-0.839844 3.945311,0 6.132811,2.988281 2.20703,2.96875 2.20703,8.261719 z m -3.78906,0.09766 q 0,-3.945312 -1.347656,-5.898437 -1.347657,-1.953125 -4.140625,-1.953125 -1.582032,0 -3.183594,0.683594 -1.601563,0.683593 -3.066406,1.796875 v 12.363281 q 1.5625,0.703125 2.675781,0.957031 1.132812,0.253906 2.558594,0.253906 3.066406,0 4.785156,-2.070312 1.71875,-2.070313 1.71875,-6.132813 z"
         style="font-size:40px;line-height:1.25"
         id="path344" />
      <path
         d="m 128.96094,55.473681 h -16.07422 q 0,2.011719 0.60547,3.515625 0.60547,1.484375 1.66015,2.441407 1.01563,0.9375 2.40235,1.40625 1.40625,0.46875 3.08594,0.46875 2.22656,0 4.47265,-0.878907 2.26563,-0.898437 3.22266,-1.757812 h 0.19531 V 64.6729 q -1.85547,0.78125 -3.78906,1.308594 -1.9336,0.527344 -4.0625,0.527344 -5.42969,0 -8.47656,-2.929688 -3.04688,-2.949219 -3.04688,-8.359375 0,-5.351562 2.91016,-8.496094 2.92968,-3.144531 7.69531,-3.144531 4.41406,0 6.79687,2.578125 2.40235,2.578125 2.40235,7.324219 z m -3.57422,-2.8125 q -0.0195,-2.890625 -1.46484,-4.472656 -1.42579,-1.582031 -4.35547,-1.582031 -2.94922,0 -4.70703,1.738281 -1.73829,1.738281 -1.97266,4.316406 z"
         style="font-size:40px;line-height:1.25"
         id="path346" />
      <path
         d="m 148.14062,48.188525 h -0.19531 q -0.82031,-0.195312 -1.60156,-0.273437 -0.76172,-0.09766 -1.81641,-0.09766 -1.69922,0 -3.28125,0.761719 -1.58203,0.742188 -3.04687,1.933594 v 15.488281 h -3.67188 V 44.184619 h 3.67188 v 3.222656 q 2.1875,-1.757812 3.84765,-2.480469 1.67969,-0.742187 3.41797,-0.742187 0.95703,0 1.38672,0.05859 0.42969,0.03906 1.28906,0.175781 z"
         style="font-size:40px;line-height:1.25"
         id="path348" />
      <path
         d="m 167.18359,59.711963 q 0,2.988281 -2.48047,4.902343 -2.46093,1.914063 -6.73828,1.914063 -2.42187,0 -4.45312,-0.566406 -2.01172,-0.585938 -3.37891,-1.269532 v -4.121093 h 0.19531 q 1.73829,1.308593 3.86719,2.089843 2.12891,0.761719 4.08203,0.761719 2.42188,0 3.78907,-0.78125 1.36718,-0.78125 1.36718,-2.460937 0,-1.289063 -0.74218,-1.953125 -0.74219,-0.664063 -2.85157,-1.132813 -0.78125,-0.175781 -2.05078,-0.410156 -1.25,-0.234375 -2.28515,-0.507813 -2.8711,-0.761718 -4.08204,-2.226562 -1.1914,-1.484375 -1.1914,-3.632813 0,-1.347656 0.54687,-2.539062 0.56641,-1.191406 1.69922,-2.128906 1.09375,-0.917969 2.77344,-1.445313 1.69922,-0.546875 3.78906,-0.546875 1.95313,0 3.94531,0.488281 2.01172,0.46875 3.33985,1.152344 v 3.925781 h -0.19531 q -1.40625,-1.035156 -3.41797,-1.738281 -2.01172,-0.722656 -3.94532,-0.722656 -2.01171,0 -3.39843,0.78125 -1.38672,0.761719 -1.38672,2.285156 0,1.347656 0.83984,2.03125 0.82031,0.683594 2.65625,1.113281 1.01563,0.234375 2.26563,0.46875 1.26953,0.234375 2.10937,0.429688 2.5586,0.585937 3.94531,2.011719 1.38672,1.445312 1.38672,3.828125 z"
         style="font-size:40px;line-height:1.25"
         id="path350" />
      <path
         d="m 191.63672,54.82915 q 0,2.65625 -0.76172,4.863281 -0.76172,2.1875 -2.14844,3.710938 -1.28906,1.445312 -3.04687,2.246094 -1.73828,0.78125 -3.69141,0.78125 -1.69922,0 -3.08594,-0.371094 -1.36718,-0.371094 -2.79297,-1.152344 V 74.0479 H 172.4375 V 44.184619 h 3.67187 v 2.285156 q 1.46485,-1.230469 3.28125,-2.050781 1.83594,-0.839844 3.90625,-0.839844 3.94532,0 6.13282,2.988281 2.20703,2.96875 2.20703,8.261719 z m -3.78906,0.09766 q 0,-3.945312 -1.34766,-5.898437 -1.34766,-1.953125 -4.14063,-1.953125 -1.58203,0 -3.18359,0.683594 -1.60156,0.683593 -3.06641,1.796875 v 12.363281 q 1.5625,0.703125 2.67579,0.957031 1.13281,0.253906 2.55859,0.253906 3.06641,0 4.78516,-2.070312 1.71875,-2.070313 1.71875,-6.132813 z"
         style="font-size:40px;line-height:1.25"
         id="path352" />
      <path
         d="m 215.62109,55.473681 h -16.07422 q 0,2.011719 0.60547,3.515625 0.60547,1.484375 1.66016,2.441407 1.01562,0.9375 2.40234,1.40625 1.40625,0.46875 3.08594,0.46875 2.22656,0 4.47266,-0.878907 2.26562,-0.898437 3.22265,-1.757812 h 0.19532 V 64.6729 q -1.85547,0.78125 -3.78907,1.308594 -1.93359,0.527344 -4.0625,0.527344 -5.42968,0 -8.47656,-2.929688 -3.04687,-2.949219 -3.04687,-8.359375 0,-5.351562 2.91015,-8.496094 2.92969,-3.144531 7.69531,-3.144531 4.41407,0 6.79688,2.578125 2.40234,2.578125 2.40234,7.324219 z m -3.57422,-2.8125 q -0.0195,-2.890625 -1.46484,-4.472656 -1.42578,-1.582031 -4.35547,-1.582031 -2.94922,0 -4.70703,1.738281 -1.73828,1.738281 -1.97266,4.316406 z"
         style="font-size:40px;line-height:1.25"
         id="path354" />
      <path
         d="M 239.44922,55.473681 H 223.375 q 0,2.011719 0.60547,3.515625 0.60547,1.484375 1.66015,2.441407 1.01563,0.9375 2.40235,1.40625 1.40625,0.46875 3.08594,0.46875 2.22656,0 4.47265,-0.878907 2.26563,-0.898437 3.22266,-1.757812 h 0.19531 V 64.6729 q -1.85547,0.78125 -3.78906,1.308594 -1.9336,0.527344 -4.0625,0.527344 -5.42969,0 -8.47656,-2.929688 -3.04688,-2.949219 -3.04688,-8.359375 0,-5.351562 2.91016,-8.496094 2.92968,-3.144531 7.69531,-3.144531 4.41406,0 6.79687,2.578125 2.40235,2.578125 2.40235,7.324219 z m -3.57422,-2.8125 q -0.0195,-2.890625 -1.46484,-4.472656 -1.42579,-1.582031 -4.35547,-1.582031 -2.94922,0 -4.70703,1.738281 -1.73829,1.738281 -1.97266,4.316406 z"
         style="font-size:40px;line-height:1.25"
         id="path356" />
      <path
         d="m 262.71094,66.001025 h -3.67188 v -2.285156 q -1.58203,1.367187 -3.30078,2.128906 -1.71875,0.761719 -3.73047,0.761719 -3.90625,0 -6.21094,-3.007813 -2.28515,-3.007812 -2.28515,-8.339843 0,-2.773438 0.78125,-4.941407 0.80078,-2.167968 2.14844,-3.691406 1.32812,-1.484375 3.08593,-2.265625 1.77735,-0.78125 3.67188,-0.78125 1.71875,0 3.04687,0.371094 1.32813,0.351562 2.79297,1.113281 V 35.6104 h 3.67188 z m -3.67188,-5.371094 V 48.1104 q -1.48437,-0.664062 -2.65625,-0.917969 -1.17187,-0.253906 -2.55859,-0.253906 -3.08594,0 -4.80469,2.148438 -1.71875,2.148437 -1.71875,6.09375 0,3.886718 1.32813,5.917968 1.32812,2.011719 4.25781,2.011719 1.5625,0 3.16406,-0.683594 1.60156,-0.703125 2.98828,-1.796875 z"
         style="font-size:40px;line-height:1.25"
         id="path358" />
    </g>
    <g
       aria-label="500"
       transform="matrix(6.6302339,0,0,5.922329,-51.470188,611.9399)"
       id="flowRoot4260"
       style="line-height:0.01%;letter-spacing:0px;word-spacing:0px;display:inline;fill:#ffffff;stroke:#000000;stroke-width:1.21546">
      <path
         d="m 52.105469,56.762744 q 0,2.03125 -0.742188,3.886719 -0.742187,1.855468 -2.03125,3.125 -1.40625,1.367187 -3.359375,2.109375 -1.933594,0.722656 -4.492187,0.722656 -2.382813,0 -4.589844,-0.507813 -2.207031,-0.488281 -3.730469,-1.191406 v -4.121094 h 0.273438 q 1.601562,1.015625 3.75,1.738282 2.148437,0.703125 4.21875,0.703125 1.386718,0 2.675781,-0.390625 1.308594,-0.390625 2.324219,-1.367188 0.859375,-0.839844 1.289062,-2.011719 0.449219,-1.171875 0.449219,-2.714843 0,-1.503907 -0.527344,-2.539063 -0.507812,-1.035156 -1.425781,-1.660156 -1.015625,-0.742188 -2.480469,-1.035156 -1.445312,-0.3125 -3.242187,-0.3125 -1.71875,0 -3.320313,0.234375 -1.582031,0.234375 -2.734375,0.46875 V 36.918994 h 17.5 v 3.417969 H 38.179687 v 7.734375 q 0.839844,-0.07813 1.71875,-0.117188 0.878907,-0.03906 1.523438,-0.03906 2.363281,0 4.140625,0.410156 1.777344,0.390625 3.261719,1.40625 1.5625,1.074219 2.421875,2.773437 0.859375,1.699219 0.859375,4.257813 z"
         style="font-size:40px;line-height:1.25"
         id="path333" />
      <path
         d="m 77.730469,51.450244 q 0,7.832031 -2.460938,11.503906 -2.441406,3.652344 -7.597656,3.652344 -5.234375,0 -7.65625,-3.710938 -2.402344,-3.710937 -2.402344,-11.40625 0,-7.753906 2.441406,-11.445312 2.441407,-3.710938 7.617188,-3.710938 5.234375,0 7.636719,3.769532 2.421875,3.75 2.421875,11.347656 z m -5.136719,8.867187 q 0.683594,-1.582031 0.917969,-3.710937 0.253906,-2.148438 0.253906,-5.15625 0,-2.96875 -0.253906,-5.15625 -0.234375,-2.1875 -0.9375,-3.710938 -0.683594,-1.503906 -1.875,-2.265625 -1.171875,-0.761718 -3.027344,-0.761718 -1.835938,0 -3.046875,0.761718 -1.191406,0.761719 -1.894531,2.304688 -0.664063,1.445312 -0.917969,3.769531 -0.234375,2.324219 -0.234375,5.097656 0,3.046875 0.214844,5.097657 0.214843,2.050781 0.917968,3.671875 0.644532,1.523437 1.816407,2.324218 1.191406,0.800782 3.144531,0.800782 1.835937,0 3.046875,-0.761719 1.210937,-0.761719 1.875,-2.304688 z"
         style="font-size:40px;line-height:1.25"
         id="path335" />
      <path
         d="m 103.16016,51.450244 q 0,7.832031 -2.46094,11.503906 -2.441408,3.652344 -7.597658,3.652344 -5.234375,0 -7.65625,-3.710938 -2.402343,-3.710937 -2.402343,-11.40625 0,-7.753906 2.441406,-11.445312 2.441406,-3.710938 7.617187,-3.710938 5.234375,0 7.636718,3.769532 2.42188,3.75 2.42188,11.347656 z m -5.136723,8.867187 q 0.683594,-1.582031 0.917969,-3.710937 0.253906,-2.148438 0.253906,-5.15625 0,-2.96875 -0.253906,-5.15625 -0.234375,-2.1875 -0.9375,-3.710938 -0.683594,-1.503906 -1.875,-2.265625 -1.171875,-0.761718 -3.027344,-0.761718 -1.835937,0 -3.046875,0.761718 -1.191406,0.761719 -1.894531,2.304688 -0.664062,1.445312 -0.917969,3.769531 -0.234375,2.324219 -0.234375,5.097656 0,3.046875 0.214844,5.097657 0.214844,2.050781 0.917969,3.671875 0.644531,1.523437 1.816406,2.324218 1.191406,0.800782 3.144531,0.800782 1.835938,0 3.046875,-0.761719 1.210938,-0.761719 1.875,-2.304688 z"
         style="font-size:40px;line-height:1.25"
         id="path337" />
    </g>
  </g>
</svg>
